<svg width="55" height="55" viewBox="0 0 55 55" fill="none" xmlns="http://www.w3.org/2000/svg">
<path d="M9.16668 13.7502H4.58334V45.8335C4.58334 48.3543 6.64584 50.4168 9.16668 50.4168H41.25V45.8335H9.16668V13.7502ZM45.8334 4.5835H18.3333C15.8125 4.5835 13.75 6.646 13.75 9.16683V36.6668C13.75 39.1877 15.8125 41.2502 18.3333 41.2502H45.8334C48.3542 41.2502 50.4167 39.1877 50.4167 36.6668V9.16683C50.4167 6.646 48.3542 4.5835 45.8334 4.5835ZM43.5417 25.2085H34.375V34.3752H29.7917V25.2085H20.625V20.6252H29.7917V11.4585H34.375V20.6252H43.5417V25.2085Z" fill="#218661"/>
</svg>
