<svg width="194" height="60" viewBox="0 0 194 60" fill="none" xmlns="http://www.w3.org/2000/svg">
<path fill-rule="evenodd" clip-rule="evenodd" d="M33.3898 60C51.8305 60 66.7797 46.5685 66.7797 30C66.7797 13.4315 51.8305 0 33.3898 0C14.9491 0 0 13.4315 0 30C0 46.5685 14.9491 60 33.3898 60ZM33.3899 56.9491C46.5886 56.9491 57.2882 44.8077 57.2882 29.8305C57.2882 14.8533 46.5886 2.71185 33.3899 2.71185C20.1912 2.71185 9.49159 14.8533 9.49159 29.8305C9.49159 44.8077 20.1912 56.9491 33.3899 56.9491Z" fill="#2E9F76"/>
<path fill-rule="evenodd" clip-rule="evenodd" d="M33.5593 56.4948C38.3736 53.839 42.7118 49.0058 42.7118 40.7976C42.7118 32.5893 38.3736 24.214 33.5593 17.6272C28.7449 24.214 24.4067 32.5893 24.4067 40.7976C24.4067 49.0058 28.7449 53.839 33.5593 56.4948Z" fill="#2E9F76"/>
<path d="M97.832 19.304C99.008 19.304 100.088 19.58 101.072 20.132C102.056 20.66 102.836 21.392 103.412 22.328C104.012 23.24 104.312 24.248 104.312 25.352C104.312 27.032 103.916 28.328 103.124 29.24C102.332 30.152 101.324 30.776 100.1 31.112V31.292C101.42 31.556 102.548 32.168 103.484 33.128C104.42 34.088 104.888 35.516 104.888 37.412C104.888 38.612 104.576 39.716 103.952 40.724C103.352 41.732 102.524 42.536 101.468 43.136C100.436 43.712 99.296 44 98.048 44H85.592V19.304H97.832ZM96.248 29.312C96.968 29.312 97.604 29.036 98.156 28.484C98.708 27.932 98.984 27.236 98.984 26.396C98.984 25.388 98.708 24.668 98.156 24.236C97.604 23.78 96.968 23.552 96.248 23.552H90.848V29.312H96.248ZM96.644 39.536C97.436 39.536 98.108 39.26 98.66 38.708C99.212 38.156 99.488 37.484 99.488 36.692V36.368C99.488 35.576 99.212 34.904 98.66 34.352C98.108 33.8 97.436 33.524 96.644 33.524H90.848V39.536H96.644ZM125.643 37.124C125.643 38.732 125.259 40.088 124.491 41.192C123.723 42.272 122.703 43.076 121.431 43.604C120.183 44.108 118.815 44.36 117.327 44.36H116.751C115.047 44.36 113.511 44 112.143 43.28C110.775 42.56 109.695 41.528 108.903 40.184C108.135 38.816 107.751 37.196 107.751 35.324V34.28C107.751 32.432 108.147 30.824 108.939 29.456C109.731 28.088 110.799 27.044 112.143 26.324C113.511 25.604 115.047 25.244 116.751 25.244H117.327C118.815 25.244 120.195 25.556 121.467 26.18C122.739 26.78 123.759 27.668 124.527 28.844C125.295 29.996 125.679 31.364 125.679 32.948V35.684H113.079V36.548C113.079 37.748 113.427 38.756 114.123 39.572C114.843 40.364 115.815 40.76 117.039 40.76C118.143 40.76 119.007 40.46 119.631 39.86C120.279 39.236 120.603 38.324 120.603 37.124H125.643ZM116.787 28.844C115.731 28.844 114.867 29.216 114.195 29.96C113.547 30.704 113.175 31.652 113.079 32.804H120.351C120.351 31.58 120.063 30.62 119.487 29.924C118.935 29.204 118.035 28.844 116.787 28.844ZM139.575 43.676C139.095 43.868 138.459 44.024 137.667 44.144C136.899 44.288 136.215 44.36 135.615 44.36C133.767 44.36 132.375 43.964 131.439 43.172C130.503 42.38 130.035 41.06 130.035 39.212V29.204H128.019V25.604H130.215L132.051 19.736H135.291V25.604H139.575V29.204H135.291V38.312C135.291 39.272 135.471 39.92 135.831 40.256C136.215 40.592 136.719 40.76 137.343 40.76C137.631 40.76 138.003 40.712 138.459 40.616C138.915 40.52 139.287 40.412 139.575 40.292V43.676ZM154.23 31.58C154.23 30.764 153.966 30.104 153.438 29.6C152.934 29.096 152.106 28.844 150.954 28.844C150.282 28.844 149.706 28.964 149.226 29.204C148.746 29.42 148.374 29.696 148.11 30.032C147.87 30.368 147.75 30.68 147.75 30.968V31.256H142.674C142.626 30.968 142.602 30.752 142.602 30.608C142.602 29.576 142.938 28.652 143.61 27.836C144.306 27.02 145.266 26.384 146.49 25.928C147.714 25.472 149.118 25.244 150.702 25.244H151.458C154.05 25.244 156.018 25.76 157.362 26.792C158.706 27.8 159.378 29.192 159.378 30.968V39.464C159.378 39.896 159.474 40.22 159.666 40.436C159.882 40.652 160.134 40.76 160.422 40.76C160.662 40.76 160.926 40.712 161.214 40.616C161.502 40.52 161.73 40.436 161.898 40.364V43.604C161.01 44.108 159.954 44.36 158.73 44.36C157.41 44.36 156.402 44.096 155.706 43.568C155.01 43.016 154.602 42.248 154.482 41.264C152.802 43.328 150.738 44.36 148.29 44.36C146.466 44.36 144.966 43.988 143.79 43.244C142.614 42.5 142.026 41.084 142.026 38.996C142.026 37.292 142.506 35.996 143.466 35.108C144.45 34.196 145.806 33.584 147.534 33.272C149.262 32.96 151.494 32.804 154.23 32.804V31.58ZM154.23 35.756C151.95 35.756 150.246 35.984 149.118 36.44C148.014 36.872 147.462 37.592 147.462 38.6C147.462 39.392 147.678 39.956 148.11 40.292C148.566 40.604 149.25 40.76 150.162 40.76C150.786 40.76 151.41 40.592 152.034 40.256C152.658 39.92 153.174 39.44 153.582 38.816C154.014 38.192 154.23 37.496 154.23 36.728V35.756ZM168.978 28.304C170.49 26.264 172.446 25.244 174.846 25.244C176.718 25.244 178.254 25.748 179.454 26.756C180.678 27.764 181.29 29.228 181.29 31.148V44H176.034V32.3C176.034 31.364 175.758 30.596 175.206 29.996C174.678 29.372 173.994 29.06 173.154 29.06C172.218 29.06 171.414 29.42 170.742 30.14C170.07 30.836 169.734 31.688 169.734 32.696V44H164.478V25.604H168.402L168.978 28.304ZM185.922 18.08H191.25V22.22H185.922V18.08ZM185.958 44V25.604H191.214V44H185.958Z" fill="#218661"/>
</svg>
